<svg width="100" height="125" xmlns="http://www.w3.org/2000/svg" xml:space="preserve" enable-background="new 0 0 100 100" version="1.1">

 <g>
  <title>Layer 1</title>
  <g id="svg_1">
   <path id="svg_2" d="m35.657,80.777c-3.197,0.19 -6.393,0.404 -9.587,0.643c-2.292,0.172 -10.457,1.939 -10.419,-1.38c0.068,-5.922 0.491,-11.854 0.769,-17.768c0.546,-11.662 1.172,-23.114 0.692,-34.788c-0.012,-0.286 -0.023,-0.571 -0.035,-0.857c5.105,-0.011 9.971,-0.444 15.06,-0.983c5.128,-0.542 9.87,-0.01 15.225,0.417c9.644,0.768 19.134,-0.703 28.784,-1.438c0.713,-0.055 0.753,-0.523 0.486,-0.927c0.852,-3.075 1.354,-8.121 -0.061,-11.018c-1.369,-2.804 -6.784,-1.526 -9.262,-1.402c-1.545,0.077 -3.09,0.152 -4.635,0.227c-0.002,-0.686 0.051,-1.407 0.148,-2.343c0.104,-1 -1.875,-1.289 -1.979,-0.297c-0.103,0.984 -0.192,1.856 -0.19,2.74c-4.471,0.219 -8.941,0.447 -13.408,0.745c-5.605,0.374 -11.111,0.458 -16.67,0.29c0.091,-1.134 0.054,-2.158 -0.117,-3.46c-0.139,-1.056 -2,-0.352 -1.875,0.599c0.148,1.135 0.189,1.927 0.139,2.78c-1.154,-0.046 -2.307,-0.084 -3.469,-0.152c-2.648,-0.155 -7.033,-1.454 -9.269,0.325c-2.055,1.636 -0.848,6.334 -0.759,8.479c0.571,13.908 0.228,27.459 -0.423,41.354c-0.286,6.123 -1.954,14.291 -0.401,20.242c0.7,2.685 17.556,0.066 19.898,-0.073c0.408,-0.024 0.814,-0.048 1.222,-0.073c0.943,-0.057 1.299,-1.951 0.136,-1.882zm-17.467,-66.802c1.929,0.037 3.856,0.165 5.782,0.277c1.512,0.088 3.019,0.175 4.522,0.25c-0.009,0.061 -0.017,0.115 -0.026,0.178c-0.258,1.646 0.103,2.987 0.428,4.629c0.208,1.054 2.062,0.341 1.875,-0.599c-0.336,-1.7 -0.582,-2.681 -0.427,-4.125c4.001,0.17 7.991,0.227 12.022,-0.042c5.827,-0.388 11.656,-0.731 17.489,-1.023c0.325,-0.016 0.651,-0.033 0.977,-0.049c0.001,0.002 0.001,0.003 0.001,0.005c0.431,2.063 0.294,3.181 0.011,5.384c-0.128,0.996 1.851,1.289 1.979,0.297c0.205,-1.603 0.544,-3.074 0.213,-4.659c-0.087,-0.415 -0.151,-0.78 -0.206,-1.127c1.48,-0.074 2.961,-0.148 4.441,-0.222c1.58,-0.079 7.641,-1.343 7.832,1.516c0.204,3.053 0.792,5.5 0.082,8.463c-9.797,0.761 -19.197,2.09 -28.908,1.317c-4.374,-0.349 -8.666,-0.968 -13.031,-0.506c-5.459,0.578 -10.753,1.131 -16.232,1.147c-0.068,-1.664 -0.137,-3.327 -0.205,-4.991c-0.05,-1.195 -1.056,-6.167 1.381,-6.12z"/>
   <path id="svg_3" d="m35.491,38.414c-1.257,1.376 -2.286,2.761 -3.301,4.259c-0.757,-0.629 -1.486,-1.114 -2.441,-1.624c-0.844,-0.45 -2.238,0.975 -1.311,1.471c1.243,0.663 2.102,1.277 3.137,2.232c0.45,0.416 1.206,-0.147 1.446,-0.517c0.624,-0.956 1.248,-1.912 1.871,-2.868c0.061,-0.093 0.365,-0.443 0.073,-0.124c0.208,-0.228 0.416,-0.455 0.624,-0.683c0.396,-0.435 0.794,-0.869 1.19,-1.304c0.888,-0.969 -0.524,-1.68 -1.288,-0.842z"/>
   <path id="svg_4" d="m38.27,33.054c-1.078,-0.188 -2.442,0.155 -3.514,0.274c-1.998,0.221 -3.974,0.405 -5.988,0.355c-2.3,-0.057 -3.361,0.514 -3.361,2.756c0,3.252 -0.285,6.643 0.173,9.866c0.254,1.79 1.076,2.516 2.77,2.482c2.489,-0.05 4.978,-0.154 7.466,-0.241c1.291,-0.046 4.506,0.053 4.925,-1.694c0.265,-1.106 -0.255,-2.644 -0.459,-3.708c-0.344,-1.793 -0.309,-3.665 -0.22,-5.482c0.021,-1.356 0.063,-4.284 -1.792,-4.608zm-1.519,13.454c-2.865,0.342 -5.881,0.241 -8.758,0.312c-1.678,0.042 -1.069,-4.396 -1.069,-5.644c0,-1.014 -0.555,-5.052 0.478,-5.4c1.736,-0.587 4.363,-0.136 6.205,-0.299c1.028,-0.091 2.052,-0.244 3.08,-0.345c1.738,-0.169 1.886,0.438 1.856,2.265c-0.079,1.627 -0.038,3.239 0.097,4.862c0.084,1.015 0.332,2.017 0.496,3.021c0.209,1.288 -1.372,1.107 -2.385,1.228z"/>
   <path id="svg_5" d="m39.585,58.776c0.003,-0.051 -0.012,-0.086 -0.014,-0.132c0.006,-0.04 0.022,-0.078 0.022,-0.118c0.013,-1.956 -0.204,-3.691 -2.429,-3.561c-2.938,0.171 -5.847,0.608 -8.795,0.623c-1.599,0.007 -2.736,0.428 -2.955,2.291c-0.336,2.863 0.045,5.884 -0.109,8.782c-0.064,1.223 -0.097,3.429 1.58,3.375c2.9,-0.093 5.766,-0.458 8.676,-0.458c2.227,0 3.275,-0.087 3.869,-2.444c0.654,-2.592 0.006,-5.693 0.155,-8.358zm-3.754,8.849c-1.715,0 -3.417,0.049 -5.128,0.173c-0.763,0.055 -1.524,0.137 -2.287,0.201c-1.703,0.142 -1.614,-0.487 -1.521,-2.23c0.082,-1.544 0.137,-3.077 0.113,-4.625c-0.011,-0.67 -0.054,-1.338 -0.104,-2.007c-0.163,-2.126 0.492,-1.596 1.821,-1.603c1.646,-0.008 3.289,-0.182 4.925,-0.345c0.856,-0.085 1.716,-0.156 2.574,-0.226c1.534,-0.124 1.823,0.488 1.813,2.08l0,0c-0.071,1.403 -0.087,2.806 -0.072,4.21c0.008,0.714 0.038,1.428 0.072,2.141c0.113,2.375 -0.424,2.231 -2.206,2.231z"/>
   <path id="svg_6" d="m82.627,30.74c-2.029,-1.084 -4.892,-4.868 -7.522,-3.861c-0.904,0.346 -1.659,1.329 -2.3,2.411c-0.075,-0.047 -0.146,-0.097 -0.221,-0.144c-0.492,-0.306 -1.414,0.326 -0.777,0.722c0.169,0.105 0.329,0.217 0.497,0.323c-0.354,0.668 -0.667,1.317 -0.949,1.828c-1.479,-0.982 -2.725,-1.666 -4.568,-0.821c-1.696,0.776 -3.142,3.467 -4.008,4.929c-1.943,3.281 -3.728,6.251 -6.307,9.103c-0.7,0.773 1.123,1.585 1.762,0.879c1.929,-2.132 3.63,-4.256 5.025,-6.782c1.408,-2.549 3.706,-8.38 7.299,-5.973c0.002,0.001 0.005,0.002 0.007,0.004c-1.522,2.561 -3.021,5.163 -4.835,7.524c-3.924,5.108 -7.305,10.273 -10.572,15.819c-3.221,5.466 -6.9,10.486 -10.663,15.592c-3.515,4.77 -3.655,11.712 -5.043,17.368c-0.104,0.429 -0.102,0.674 -0.121,1.18c-0.007,0.195 0.044,0.428 0.227,0.541c0.126,0.078 0.251,0.156 0.378,0.234c0.368,0.229 0.747,0.142 1.108,-0.055c2.69,-1.465 4.759,-3.931 7.438,-5.497c2.608,-1.524 4.957,-2.484 6.964,-4.779c0.069,-0.06 0.136,-0.125 0.188,-0.205c0.066,-0.079 0.11,-0.152 0.146,-0.222c4.177,-6.245 8.071,-12.63 11.99,-19.007c0.021,-0.031 0.042,-0.062 0.06,-0.097c1.063,-1.729 2.13,-3.457 3.203,-5.181c0.224,-0.007 0.35,-0.275 0.35,-0.562c0.995,-1.596 1.996,-3.19 3.012,-4.776c3.525,-5.505 7.052,-10.715 11.233,-15.746c2.009,-2.415 -1.347,-3.865 -3.001,-4.749zm-9.78,19.948c-0.898,1.403 -1.785,2.812 -2.667,4.222c-0.712,-0.378 -1.436,-0.727 -2.196,-1.036c-0.648,-0.264 -0.825,0.877 -0.301,1.091c0.66,0.269 1.293,0.564 1.914,0.882c-0.375,0.603 -0.751,1.205 -1.124,1.809c-0.122,-0.093 -0.252,-0.183 -0.405,-0.27c-0.574,-0.324 -1.226,-0.515 -1.841,-0.745c-0.655,-0.245 -0.817,0.896 -0.287,1.095c0.661,0.247 1.388,0.443 1.965,0.837c-0.352,0.569 -0.702,1.14 -1.053,1.709c-0.371,-0.303 -0.743,-0.606 -1.114,-0.909c-0.543,-0.442 -1.042,0.599 -0.604,0.957c0.375,0.306 0.749,0.611 1.124,0.917c-3.978,6.471 -7.926,12.952 -12.171,19.286c-0.18,0.215 -0.384,0.397 -0.578,0.593c-0.438,-0.631 -0.878,-1.255 -1.435,-1.791c-0.749,-0.722 -1.636,-1.102 -2.573,-1.515c-0.518,-0.228 -1.441,0.438 -0.764,0.736c0.775,0.342 1.521,0.639 2.178,1.189c0.719,0.602 1.219,1.394 1.748,2.156c-0.674,0.549 -1.396,1.039 -2.154,1.481c-0.35,-0.554 -0.711,-1.081 -1.189,-1.551c-0.598,-0.588 -1.349,-0.958 -2.072,-1.365c-0.6,-0.337 -0.714,0.833 -0.225,1.108c0.655,0.369 1.297,0.708 1.854,1.221c0.329,0.303 0.583,0.666 0.818,1.042c-0.782,0.429 -1.575,0.847 -2.359,1.275c-0.112,-0.441 -0.265,-0.83 -0.581,-1.232c-0.435,-0.552 -1.108,-0.896 -1.687,-1.275c-0.49,-0.322 -1.007,0.759 -0.502,1.09c0.423,0.278 0.87,0.533 1.244,0.875c0.351,0.32 0.497,0.671 0.599,1.069c-0.577,0.339 -1.131,0.71 -1.662,1.109c-0.231,-0.352 -0.462,-0.703 -0.693,-1.054c-0.353,-0.536 -1.198,0.305 -0.883,0.786c0.218,0.331 0.436,0.662 0.652,0.993c-0.968,0.816 -1.936,1.633 -2.902,2.449c0.814,-0.688 0.932,-2.729 1.197,-3.81c0.699,-2.85 1.252,-5.704 1.674,-8.609c0.524,-3.605 3.986,-7.017 6.06,-9.83c3.728,-5.06 6.84,-10.399 10.028,-15.811c2.373,-4.027 5.389,-7.582 8.069,-11.38c2.971,1.46 5.467,3.24 7.987,5.336c-1.031,1.62 -2.053,3.252 -3.089,4.87zm3.715,-5.834c-2.494,-2.051 -4.97,-3.808 -7.93,-5.251c-0.02,-0.01 -0.043,-0.008 -0.064,-0.015c0.396,-0.58 0.778,-1.169 1.151,-1.765c2.427,1.437 4.854,2.873 7.28,4.31c0.503,0.297 1.343,-0.417 0.697,-0.8c-2.475,-1.465 -4.949,-2.93 -7.423,-4.395c0.547,-0.906 1.095,-1.813 1.643,-2.72c2.608,1.914 5.147,3.796 7.349,6.187c0.115,0.125 0.282,0.148 0.451,0.117c-0.844,1.035 -1.537,1.854 -1.729,2.137c-0.488,0.721 -0.952,1.461 -1.425,2.195zm3.718,-5.031c-0.018,-0.042 -0.032,-0.085 -0.069,-0.126c-2.28,-2.478 -4.922,-4.409 -7.63,-6.395c-0.026,-0.019 -0.06,-0.024 -0.089,-0.038c0.427,-0.706 0.854,-1.413 1.28,-2.119c2.377,1.594 4.618,3.307 6.834,5.176c0.426,0.359 1.504,-0.121 0.982,-0.561c-2.357,-1.988 -4.743,-3.807 -7.284,-5.495c0.265,-0.439 0.529,-0.878 0.795,-1.317c0.607,-1.007 7.213,3.752 8.566,4.475c1.068,0.57 -1.365,3.879 -3.385,6.4z"/>
   <path id="svg_7" d="m76.57,79.643c-0.006,-0.009 -0.012,-0.017 -0.018,-0.025c0.24,-2.878 -0.554,-6.024 -0.93,-8.802c-0.576,-4.27 -0.285,-8.506 -0.039,-12.78c0.071,-1.25 -1.429,-1.277 -1.5,-0.038c-0.272,4.75 -0.263,9.342 0.217,14.028c-0.375,-0.422 -0.51,-0.959 -0.718,-1.471c-0.38,-0.938 -1.083,-1.616 -1.782,-2.316c-0.404,-0.405 -1.484,-0.07 -0.957,0.458c0.422,0.422 0.872,0.822 1.211,1.317c0.373,0.546 0.524,1.172 0.801,1.76c0.344,0.735 0.938,1.167 1.594,1.539c0.041,0.332 0.075,0.663 0.12,0.996c0.126,0.933 0.358,2.07 0.419,3.14c-0.363,-0.46 -0.742,-0.91 -1.168,-1.33c-1.21,-1.193 -2.571,-2.178 -3.927,-3.197c-0.479,-0.36 -1.177,0.616 -0.695,0.979c1.124,0.844 2.272,1.658 3.314,2.604c0.906,0.823 1.638,1.749 2.335,2.719c-0.296,1.058 -1.07,1.793 -2.808,1.743c-0.017,0 -0.032,-0.001 -0.048,-0.002c0.062,-0.214 0.057,-0.446 -0.076,-0.602c-1.123,-1.323 -2.224,-2.638 -3.192,-4.08c-0.389,-0.579 -1.101,0.344 -0.785,0.814c0.905,1.35 1.936,2.587 2.983,3.824c-1.305,-0.053 -2.609,-0.12 -3.912,-0.193c-0.011,0 -0.021,-0.001 -0.032,-0.002c-0.21,-0.311 -0.43,-0.615 -0.695,-0.889c-0.423,-0.436 -0.922,-0.73 -1.437,-1.044c-0.515,-0.314 -1.17,0.691 -0.658,1.003c0.422,0.258 0.824,0.513 1.188,0.84c-2.005,-0.113 -4.009,-0.226 -6.013,-0.338c-0.997,-0.056 -1.054,1.943 -0.051,1.999c2.981,0.167 16.026,2.641 16.976,-0.993c0.084,-0.32 0.135,-0.649 0.185,-0.979c0.158,-0.204 0.238,-0.477 0.098,-0.682z"/>
  </g>
 </g>
</svg>
