<?xml version="1.0" encoding="utf-8"?>
<!-- Generator: Adobe Illustrator 25.0.0, SVG Export Plug-In . SVG Version: 6.00 Build 0)  -->
<svg version="1.1" id="图层_1" xmlns="http://www.w3.org/2000/svg" xmlns:xlink="http://www.w3.org/1999/xlink" x="0px" y="0px"
	 viewBox="0 0 512 512" style="enable-background:new 0 0 512 512;" xml:space="preserve">
<style type="text/css">
	.st0{fill:#2672FF;}
	.st1{fill:#189A75;}
	.st2{fill:#4CB35F;}
</style>
<g>
	<path class="st0" d="M466.2,355.5v96.8c0,30.1-24.4,54.5-54.5,54.5H101.2c-30.1,0-54.5-24.4-54.5-54.5V294.7l2.7-2.6l63.4,63.4h0.8
		v72h285.7V242.7L512,355.5H466.2z M0,166l110.9,110.9l2.6-2.7V84.5h285.7V166l64.6,64.6h2.3V59.6c0-30.1-24.4-54.5-54.5-54.5H101.2
		c-30.1,0-54.5,24.4-54.5,54.5V166H0z"/>
	<g id="XMLID_26_">
		<g>
			<path class="st1" d="M382.3,155.8c0,0-92.6,92.6-140.4,172l-34.1-21.7C207.7,306.2,295,176.9,382.3,155.8z"/>
			<path class="st2" d="M207.7,306.2l34.1,21.7c-13.3,22.2-23.2,43.4-26.5,61.2c0,0-19.1-70.7-79.6-123.6L207.7,306.2z"/>
		</g>
	</g>
</g>
</svg>
