<?xml version="1.0" standalone="no"?><!DOCTYPE svg PUBLIC "-//W3C//DTD SVG 1.1//EN" "http://www.w3.org/Graphics/SVG/1.1/DTD/svg11.dtd"><svg t="1619366329561" class="icon" viewBox="0 0 1024 1024" version="1.1" xmlns="http://www.w3.org/2000/svg" p-id="5969" xmlns:xlink="http://www.w3.org/1999/xlink" width="48" height="48"><defs><style type="text/css"></style></defs><path d="M988.944032 277.100221L728.08548 6.044132A19.71317 19.71317 0 0 0 713.889518 0H324.957351a78.976663 78.976663 0 0 0-78.914672 78.883676v275.581439h-157.457396a59.108515 59.108515 0 0 0-58.891546 58.891546v295.480582a59.108515 59.108515 0 0 0 58.891546 58.891546h157.581379V945.364289a78.914671 78.914671 0 0 0 78.790689 78.635711h590.465236a78.883676 78.883676 0 0 0 79.038653-78.635711V290.769259a19.71317 19.71317 0 0 0-5.517208-13.669038z m-270.188213-223.942852l214.148258 222.517057h-214.148258zM88.585283 728.612404a19.682175 19.682175 0 0 1-19.651179-19.651179V413.480643a19.682175 19.682175 0 0 1 19.651179-19.651179h531.759664a19.682175 19.682175 0 0 1 19.651179 19.651179v295.480582a19.682175 19.682175 0 0 1-19.651179 19.651179zM955.065896 945.364289a39.457336 39.457336 0 0 1-39.519327 39.302357H324.957351a39.488331 39.488331 0 0 1-39.519327-39.364349v-177.325544h334.751945a59.108515 59.108515 0 0 0 58.891546-58.891546V413.480643a59.108515 59.108515 0 0 0-58.891546-58.891546h-334.751945V78.883676a39.550322 39.550322 0 0 1 39.519327-39.488331h354.434119V295.387596a19.682175 19.682175 0 0 0 19.682175 19.682174h255.992251V945.364289z" p-id="5970"></path><path d="M199.146412 654.254079a96.086206 96.086206 0 0 1-33.041257-5.734177 76.311045 76.311045 0 0 1-27.617036-17.295517 82.944093 82.944093 0 0 1-18.814299-29.011835 108.825378 108.825378 0 0 1-6.973999-40.604172 106.407725 106.407725 0 0 1 7.252959-40.604171 89.608136 89.608136 0 0 1 19.372219-29.848715 83.687986 83.687986 0 0 1 27.895996-18.59733 86.787541 86.787541 0 0 1 33.041256-6.416079 71.289766 71.289766 0 0 1 32.359355 7.128977 91.312892 91.312892 0 0 1 23.990556 16.861579l-25.106396 30.685595a72.622575 72.622575 0 0 0-13.79302-9.391652 34.34307 34.34307 0 0 0-16.303659-3.750461 33.010261 33.010261 0 0 0-15.218815 3.626479 38.86842 38.86842 0 0 0-12.398221 10.321518 51.111663 51.111663 0 0 0-8.647758 16.458638 70.421891 70.421891 0 0 0-3.099555 22.037836 62.48703 62.48703 0 0 0 10.72446 39.333354 34.250083 34.250083 0 0 0 28.329933 13.669037 37.907558 37.907558 0 0 0 18.814299-4.587341 55.791991 55.791991 0 0 0 14.07198-11.003421l25.106396 30.127675a76.590005 76.590005 0 0 1-26.904138 20.085117 80.588431 80.588431 0 0 1-33.041256 6.509066z m133.900778 0a109.166329 109.166329 0 0 1-35.582892-6.19911 94.660411 94.660411 0 0 1-33.041257-19.744166l27.338075-32.917275a92.025789 92.025789 0 0 0 21.045979 12.708176 53.901262 53.901262 0 0 0 21.355934 4.866302 28.577898 28.577898 0 0 0 15.776736-3.34752 10.817447 10.817447 0 0 0 4.866301-9.484638 9.050701 9.050701 0 0 0-1.67376-5.579199 17.140539 17.140539 0 0 0-4.897297-4.1844 53.715289 53.715289 0 0 0-7.655901-3.781457q-4.463359-1.797742-10.383509-3.874444l-22.595756-9.484638a67.105367 67.105367 0 0 1-13.947998-7.376941 54.3352 54.3352 0 0 1-11.654327-11.034416 50.08881 50.08881 0 0 1-7.965857-14.381935 52.10352 52.10352 0 0 1-2.944577-17.853438 48.848987 48.848987 0 0 1 5.021279-21.913854 56.070951 56.070951 0 0 1 13.947998-17.853437 67.29134 67.29134 0 0 1 21.355934-12.11926 79.844538 79.844538 0 0 1 27.214094-4.463359 91.870812 91.870812 0 0 1 31.646457 5.858159 77.860823 77.860823 0 0 1 28.577897 18.411357l-23.95956 30.220661a87.066501 87.066501 0 0 0-17.729455-9.763598 50.243787 50.243787 0 0 0-18.597331-3.347519 26.74916 26.74916 0 0 0-13.947997 3.099555 10.073554 10.073554 0 0 0-5.021279 9.298665 10.817447 10.817447 0 0 0 7.128976 9.918576q7.128977 3.502497 19.651179 8.213821l22.037837 8.647758a59.542452 59.542452 0 0 1 26.222235 18.597331 49.592881 49.592881 0 0 1 9.298665 30.99555 53.405333 53.405333 0 0 1-4.742319 22.037836 53.560311 53.560311 0 0 1-13.79302 18.597331 68.624149 68.624149 0 0 1-22.192814 12.708175 88.306323 88.306323 0 0 1-30.15867 4.525351zM463.476466 650.906559l-53.436329-181.32397h50.770711l18.969277 79.224627q3.905439 14.505918 6.695039 28.608893t6.695039 28.856858h1.11584q3.905439-14.784878 6.819021-28.856858t6.540061-28.608893l18.442353-79.224627h48.972969L521.624118 650.906559z" p-id="5971"></path></svg>