<?xml version="1.0" standalone="no"?><!DOCTYPE svg PUBLIC "-//W3C//DTD SVG 1.1//EN" "http://www.w3.org/Graphics/SVG/1.1/DTD/svg11.dtd"><svg t="1645258555238" class="icon" viewBox="0 0 1233 1024" version="1.1" xmlns="http://www.w3.org/2000/svg" p-id="4608" xmlns:xlink="http://www.w3.org/1999/xlink" width="154.125" height="128"><defs><style type="text/css"></style></defs><path d="M155.861102 419.310664a694.627443 694.627443 0 0 0-60.361146 230.665807 77.520957 77.520957 0 0 0-2.155755 56.049636v1.077877a267.313646 267.313646 0 0 0 58.20539 168.148907 170.886715 170.886715 0 0 0 32.336328 48.504492 64.532532 64.532532 0 0 0 52.816003 23.713307h2.155755c88.385964 50.660247 214.497643 76.52931 377.257162 76.52931s288.871198-25.869063 377.257161-76.52931h2.155755a66.936199 66.936199 0 0 0 52.816003-24.791185c15.090286-18.323919 28.024818-33.414206 33.414206-50.660247a273.87792 273.87792 0 0 0 57.127513-163.837396c0-1.077878 1.077878-2.155755 1.077877-3.233633a80.84082 80.84082 0 0 0-3.233633-59.283268 686.414016 686.414016 0 0 0-48.504492-203.718867c53.89388-53.89388 86.230208-118.566536 91.619597-185.394948 5.389388-73.295677-20.479674-144.435599-75.451433-206.9525a80.84082 80.84082 0 0 0-63.594778-26.94694c-59.283268 0-143.357721 51.738125-248.989727 131.501067a539.014254 539.014254 0 0 0-174.616172-26.94694 546.688742 546.688742 0 0 0-165.993151 24.791185c-62.516901-22.63543-121.800169-61.439023-170.304661-93.775351-53.89388-34.492083-89.463841-58.205391-121.80017-58.205391a60.533606 60.533606 0 0 0-54.971757 32.336328c-53.89388 101.320495-64.672656 206.9525-28.024818 289.949076a188.628581 188.628581 0 0 0 79.762943 97.008984z" fill="#2D2413" p-id="4609"></path><path d="M616.114839 991.663672c-321.207526 0-490.43431-101.320495-490.43431-292.104831a639.52634 639.52634 0 0 1 73.295677-294.260586 172.104717 172.104717 0 0 1-94.853229-93.775351c-32.336328-74.373555-22.63543-169.226784 26.94694-261.924258a29.027244 29.027244 0 0 1 25.869062-15.090287c23.713307 0 57.127513 22.63543 104.554128 52.816003 52.816003 34.492083 117.488659 76.52931 187.550703 100.242617a532.70867 532.70867 0 0 1 347.076589 4.311511c93.775352-71.139922 187.550703-135.812578 243.600338-135.812579a50.423114 50.423114 0 0 1 39.881471 16.168164c49.58237 56.049635 72.217799 119.644414 66.828412 183.239193-5.389388 65.750534-39.881471 129.345313-98.086862 180.00556a648.461945 648.461945 0 0 1 57.127513 263.002136c1.077878 192.940091-169.226784 293.182708-489.356432 293.182708z" fill="#E9BE4F" p-id="4610"></path><path d="M1047.26588 835.371419c12.934531 21.557552 3.233633 34.492083-23.713307 67.906289-19.401797 23.713307-58.205391 10.778776-71.139922-11.856653-12.934531-21.557552-2.155755-51.738125 23.713307-67.906289 25.869063-15.090286 58.205391-9.700898 71.139922 11.856653zM1108.704904 696.325208c-8.623021 25.869063-51.738125 54.971758-68.984167 29.102696-57.127513-87.308086 3.233633-104.554128 32.336328-94.85323a53.398057 53.398057 0 0 1 36.647839 65.750534zM989.06049 766.387253c-46.348737 18.323919-40.959349 43.115104-70.062045 33.414205a54.260359 54.260359 0 0 1-34.492083-68.984166 55.3059 55.3059 0 0 1 70.062044-33.414206c29.102695 9.700898 62.516901 58.205391 34.492084 68.984167z" fill="#603A17" p-id="4611"></path><path d="M186.041674 835.371419c-12.934531 21.557552-3.233633 34.492083 23.713308 67.906289 19.401797 23.713307 58.205391 10.778776 71.139922-11.856653 12.934531-21.557552 2.155755-51.738125-23.713308-67.906289-26.94694-15.090286-58.205391-9.700898-71.139922 11.856653zM123.524773 696.325208c8.623021 25.869063 51.738125 54.971758 68.984167 29.102696 57.127513-87.308086-3.233633-104.554128-32.336328-94.85323a53.398057 53.398057 0 0 0-36.647839 65.750534zM243.169188 766.387253c46.348737 18.323919 40.959349 43.115104 70.062044 33.414205a54.260359 54.260359 0 0 0 34.492083-68.984166 55.3059 55.3059 0 0 0-70.062044-33.414206c-29.102695 9.700898-62.516901 58.205391-34.492083 68.984167z" fill="#603A17" p-id="4612"></path><path d="M843.547013 599.316224m-76.52931 0a76.52931 76.52931 0 1 0 153.05862 0 76.52931 76.52931 0 1 0-153.05862 0Z" fill="#231F20" p-id="4613"></path><path d="M864.026688 582.070182m-26.946941 0a26.94694 26.94694 0 1 0 53.893881 0 26.94694 26.94694 0 1 0-53.893881 0Z" fill="#FFFFFF" p-id="4614"></path><path d="M429.642013 599.316224m-76.52931 0a76.52931 76.52931 0 1 0 153.05862 0 76.52931 76.52931 0 1 0-153.05862 0Z" fill="#231F20" p-id="4615"></path><path d="M451.199565 582.070182m-26.94694 0a26.94694 26.94694 0 1 0 53.89388 0 26.94694 26.94694 0 1 0-53.89388 0Z" fill="#FFFFFF" p-id="4616"></path><path d="M843.547013 837.527174c0 89.463841-92.697474 117.488659-206.9525 117.488659s-206.9525-28.024818-206.9525-117.488659 92.697474-205.874622 206.9525-205.874622 206.9525 116.410781 206.9525 205.874622z" fill="#FFFFFF" p-id="4617"></path><path d="M728.214109 661.833125c0 50.660247-91.619596 91.619596-91.619596 91.619596s-91.619596-40.959349-91.619596-91.619596 183.239193-50.660247 183.239192 0zM1228.349318 708.181862a3.96659 3.96659 0 0 1-3.233633-1.077878 238.933129 238.933129 0 0 0-155.214375-25.869062 5.497176 5.497176 0 1 1-2.155755-10.778776 252.740741 252.740741 0 0 1 162.759518 28.024818c3.233633 1.077878 3.233633 5.389388 2.155755 7.545143 0 2.155755-2.155755 2.155755-4.31151 2.155755zM1191.701479 779.321784a8.170312 8.170312 0 0 1-4.31151-2.155755c-46.348737-49.58237-134.734701-56.049635-135.812578-57.127513a6.036115 6.036115 0 0 1-5.389388-6.467266c0-3.233633 2.155755-5.389388 6.467265-5.389388s94.853229 7.545143 143.357722 60.361146a5.206149 5.206149 0 0 1 0 7.545143c-1.077878 3.233633-2.155755 3.233633-4.311511 3.233633zM1148.586375 853.695339a5.928327 5.928327 0 0 1-5.389388-3.233633c-34.492083-61.439023-108.865638-73.295677-109.943516-73.295677a5.497176 5.497176 0 1 1 2.155756-10.778776c3.233633 0 79.762943 11.856654 117.488659 78.685065 1.077878 3.233633 1.077878 6.467266-2.155756 7.545143 0 1.077878-1.077878 1.077878-2.155755 1.077878zM6.036115 708.181862a5.928327 5.928327 0 0 1-5.389388-3.233633c-1.077878-3.233633-1.077878-6.467266 2.155755-7.545143 75.451432-44.192982 159.525885-28.024818 162.759518-28.024818 3.233633 1.077878 5.389388 3.233633 4.31151 6.467266s-3.233633 5.389388-6.467265 4.31151c-1.077878 0-84.074453-15.090286-155.214375 25.869063 0 2.155755-1.077878 2.155755-2.155755 2.155755zM42.683953 779.321784a6.467266 6.467266 0 0 1-4.31151-1.077878 5.206149 5.206149 0 0 1 0-7.545143c48.504492-52.816003 139.046211-60.361146 143.357721-60.361146a5.949884 5.949884 0 0 1 1.077878 11.856654c-1.077878 0-89.463841 7.545143-135.812578 57.127513zM85.799057 853.695339a3.955811 3.955811 0 0 1-3.233633-1.077878c-3.233633-1.077878-3.233633-5.389388-2.155755-7.545143 37.725716-65.750534 114.255026-77.607188 117.488659-78.685065a5.313937 5.313937 0 0 1 6.467266 4.31151c0 3.233633-2.155755 6.467266-4.311511 6.467266-1.077878 0-74.373555 11.856654-109.943515 73.295677 0 2.155755-2.155755 3.233633-4.311511 3.233633z" fill="#231F20" p-id="4618"></path><path d="M386.526909 225.292695c-98.086862-57.127513-149.824987-114.255026-195.095846-93.775351s-99.16474 204.796745 54.971757 227.432174a352.465977 352.465977 0 0 1 140.124089-133.656823zM843.547013 233.915716s122.878047-85.152331 174.616172-95.931107c45.270859-9.700898 144.435599 123.955924-21.557552 248.989727a432.379822 432.379822 0 0 0-153.05862-153.05862z" fill="#3B2416" p-id="4619"></path><path d="M230.234656 192.956367h16.168164c2.155755 0 6.467266 1.077878 9.700899 1.077878a47.426615 47.426615 0 0 1 10.778776 2.155755 149.749536 149.749536 0 0 1 20.479674 6.467266c6.467266 3.233633 12.934531 6.467266 18.32392 9.700898a78.685065 78.685065 0 0 1 14.012408 9.700898c7.545143 6.467266 12.934531 10.778776 12.934532 10.778776a2.02641 2.02641 0 0 1 0 3.233633c-1.077878 1.077878-1.077878 1.077878-2.155756 0 0 0-5.389388-3.233633-14.012408-7.545143a62.333662 62.333662 0 0 0-15.090287-5.389388 100.910901 100.910901 0 0 0-17.246042-4.31151c-6.467266 0-11.856654-1.077878-17.246041-1.077878a13.667488 13.667488 0 0 0-6.467266 1.077878 16.017261 16.017261 0 0 0-6.467265 1.077877 118.307846 118.307846 0 0 1-16.168164 4.311511 15.693898 15.693898 0 1 1-8.623021-30.180573c-2.155755-1.077878 0-1.077878 1.077877-1.077878zM1003.072899 236.071471s-6.467266-2.155755-16.168165-4.31151c-2.155755-1.077878-4.31151 0-6.467265-1.077878a13.667488 13.667488 0 0 1-6.467266-1.077877c-5.389388 0-10.778776 1.077878-17.246041 1.077877a100.943238 100.943238 0 0 0-17.246042 4.311511c-5.389388 2.155755-10.778776 3.233633-15.090287 5.389388-8.623021 4.31151-14.012409 7.545143-14.012408 7.545143-1.077878 1.077878-2.155755 0-2.155756-1.077878v-2.155755a55.079546 55.079546 0 0 1 12.934532-10.778776 157.715051 157.715051 0 0 1 14.012408-9.700898c5.389388-3.233633 11.856654-6.467266 17.246042-9.700899a113.856211 113.856211 0 0 1 20.479675-6.467265c3.233633-1.077878 7.545143-1.077878 10.778776-2.155756 3.233633 0 7.545143-1.077878 9.700898-1.077877h16.168164a15.640004 15.640004 0 1 1-1.077877 31.25845z" fill="#E9BE4F" p-id="4620"></path><path d="M510.482833 462.425768s-8.623021 0-20.479674 1.077878c-3.233633 0-7.545143-1.077878-11.856654-1.077878-4.31151-1.077878-8.623021-1.077878-14.012409-2.155755a30.64406 30.64406 0 0 1-12.934531-4.31151l-12.934531-4.311511c-7.545143-4.31151-16.168164-7.545143-22.63543-11.856654s-12.934531-8.623021-18.323919-12.934531a190.989133 190.989133 0 0 1-16.168164-14.012409 2.285101 2.285101 0 0 1 3.233633-3.233632 93.678343 93.678343 0 0 0 18.323919 8.62302c5.389388 2.155755 11.856654 4.31151 19.401797 7.545144 7.545143 2.155755 15.090286 3.233633 22.63543 5.389388l11.856653 1.077877a36.130457 36.130457 0 0 0 10.778776 0c3.233633 0 6.467266-1.077878 8.623021-1.077877a18.323919 18.323919 0 0 0 7.545143-1.077878 163.266121 163.266121 0 0 0 19.401797-6.467266 19.768275 19.768275 0 1 1 11.856654 37.725717 6.467266 6.467266 0 0 1-4.311511 1.077877zM744.382274 421.466419s7.545143 2.155755 20.479674 5.389388c3.233633 1.077878 5.389388 0 7.545143 1.077878h8.623021c3.233633 1.077878 6.467266-1.077878 10.778776-1.077878l10.778776-2.155755c7.545143-2.155755 15.090286-4.31151 21.557552-6.467266a148.369852 148.369852 0 0 0 18.323919-8.62302 176.157537 176.157537 0 0 0 17.246042-9.700899c1.077878-1.077878 2.155755 0 3.233633 1.077878s0 2.155755 0 3.233633a158.070751 158.070751 0 0 1-15.090286 15.090286c-4.31151 4.31151-10.778776 8.623021-17.246042 14.012409-6.467266 4.31151-14.012409 8.623021-21.557552 14.012409l-11.856654 5.389388a26.408001 26.408001 0 0 1-12.934531 4.31151l-12.934531 3.233633a55.618484 55.618484 0 0 1-11.856654 2.155755h-20.479675a19.951514 19.951514 0 1 1-1.077877-39.881471 18.970646 18.970646 0 0 1 6.467266-1.077878z" fill="#754D29" p-id="4621"></path><path d="M728.214109 875.252891h-2.155755l-88.385963-14.012409-88.385964 14.012409a13.11777 13.11777 0 0 1-4.31151-25.869063l92.697474-15.090286 92.697474 15.090286a12.449486 12.449486 0 0 1 10.778776 15.090287 12.805186 12.805186 0 0 1-12.934532 10.778776z" fill="#231F20" p-id="4622"></path><path d="M604.258185 859.084727l33.414206-58.205391 33.414205 58.205391h-66.828411z" fill="#231F20" p-id="4623"></path><path d="M644.139656 256.551146c15.090286 12.934531 11.856654 24.791185-1.077877 57.127513-8.623021 22.63543-40.959349 22.63543-56.049636 9.700898s-15.090286-38.803594 1.077878-57.127513c15.090286-18.323919 40.959349-22.63543 56.049635-9.700898zM748.693784 231.759961c0 21.557552-24.791185 54.971758-44.192982 39.881471-65.750534-50.660247-23.713307-79.762943 0-79.762942a42.263581 42.263581 0 0 1 44.192982 39.881471zM574.077612 234.993594c-30.180573 25.869063-19.401797 43.115104-44.192982 43.115104a43.115104 43.115104 0 1 1 0-86.230208c24.791185 0 62.516901 28.024818 44.192982 43.115104z" fill="#603A17" p-id="4624"></path></svg>