<svg xmlns="http://www.w3.org/2000/svg" xmlns:xlink="http://www.w3.org/1999/xlink" fill="none" version="1.1" width="80" height="80" viewBox="0 0 80 80"><defs><clipPath id="master_svg0_12_1776"><rect x="0" y="0" width="80" height="80" rx="0"/></clipPath></defs><g clip-path="url(#master_svg0_12_1776)"><g><path d="M79.60794453125,11.45733806375125C60.16084453125,20.46810642578125,47.398344531250004,34.35113642578125,40.58184453125,40.28573642578125L25.38354453125,29.02273642578125L20.28564453125,33.34593642578125L41.153244531249996,56.28573642578125C46.519244531249996,46.75363642578125,61.86744453125,28.98013642578125,80.00004453125,16.04332642578125L80.00004453125,14.85714642578125Q80.00004453125,13.11984642578125,79.60794453125,11.45733806375125Z" fill-rule="evenodd" fill="#00BF59" fill-opacity="1"/></g><g><path d="M0,65.1429L0,14.8571Q0,12.0232,1.04315,9.38831Q2.17578,6.52734,4.35156,4.35156Q6.52733,2.17578,9.38831,1.04315Q12.0232,0,14.8571,0L65.1429,0Q67.9768,0,70.6117,1.04315Q73.4727,2.17578,75.6484,4.35156Q77.1637,5.86679,78.173,7.71432Q73.0801,10.0583,68.0749,13.0656Q67.8653,12.7308,67.5672,12.4328Q66.563,11.4286,65.1429,11.4286L14.8571,11.4286Q13.437,11.4286,12.4328,12.4328Q11.4286,13.437,11.4286,14.8571L11.4286,65.1429Q11.4286,66.563,12.4328,67.5672Q13.437,68.5714,14.8571,68.5714L65.1429,68.5714Q66.563,68.5714,67.5672,67.5672Q68.5714,66.563,68.5714,65.1429L68.5714,30.4249Q74.1995,25.2985,80,20.9858L80,65.1429Q80,67.9768,78.9569,70.6117Q77.8242,73.4727,75.6484,75.6484Q73.4727,77.8242,70.6117,78.9569Q67.9768,80,65.1429,80L14.8571,80Q12.0232,80,9.38831,78.9569Q6.52734,77.8242,4.35156,75.6484Q2.17578,73.4727,1.04315,70.6117Q0,67.9768,0,65.1429Z" fill-rule="evenodd" fill="#2160FD" fill-opacity="1"/></g></g></svg>