<svg t="1633706050231" class="icon" viewBox="0 0 1024 1024" version="1.1" xmlns="http://www.w3.org/2000/svg" p-id="4800" width="512" height="512"><path d="M372.528 92.579h475.964c42.969 0 77.802 35.817 77.802 80v370.226c0 44.183-34.833 80-77.802 80h-7.26v64.54l-113.54-64.54H372.528c-42.969 0-77.802-35.817-77.802-80V172.579c-0.001-44.183 34.833-80 77.802-80z" fill="#E6F0F4" p-id="4801"></path><path d="M861.231 721.719l-138.827-78.914H372.528c-53.928 0-97.802-44.86-97.802-100V172.579c0-55.14 43.874-100 97.802-100h475.963c53.929 0 97.803 44.86 97.803 100v370.226c0 50.725-37.134 92.75-85.063 99.155v79.759z m-488.703-609.14c-31.872 0-57.802 26.916-57.802 60v370.226c0 33.084 25.93 60 57.802 60h360.451l88.253 50.166v-50.166h27.26c31.872 0 57.803-26.916 57.803-60V172.579c0-33.084-25.931-60-57.803-60H372.528z" fill="#1B4551" p-id="4802"></path><path d="M648.577 331.394H172.613c-42.969 0-77.802 35.817-77.802 80V781.62c0 44.183 34.833 80 77.802 80h7.26v64.54l113.54-64.54h355.164c42.969 0 77.802-35.817 77.802-80V411.394c0-44.183-34.833-80-77.802-80z" fill="#F6FAFC" p-id="4803"></path><path d="M159.873 960.535v-79.759c-47.934-6.4-85.063-48.428-85.063-99.155V411.394c0-55.14 43.874-100 97.802-100h475.964c53.928 0 97.802 44.86 97.802 100v370.227c0 55.14-43.874 100-97.802 100H298.7l-138.827 78.914z m12.74-609.141c-31.872 0-57.802 26.916-57.802 60v370.227c0 33.084 25.93 60 57.802 60h27.26v50.166l88.253-50.166h360.451c31.872 0 57.802-26.916 57.802-60V411.394c0-33.084-25.93-60-57.802-60H172.613z" fill="#1B4551" p-id="4804"></path><path d="M425.37 489.879H206.607c-11.046 0-20-8.954-20-20s8.954-20 20-20H425.37c11.046 0 20 8.954 20 20s-8.954 20-20 20zM569.942 588.88H206.607c-11.046 0-20-8.954-20-20s8.954-20 20-20h363.334c11.046 0 20 8.954 20 20s-8.954 20-19.999 20zM339.522 706.892H206.607c-11.046 0-20-8.954-20-20s8.954-20 20-20h132.915c11.046 0 20 8.954 20 20s-8.954 20-20 20z" fill="#1B4551" p-id="4805"></path><path d="M701.639 360.316m-172.729 0a172.729 172.729 0 1 0 345.458 0 172.729 172.729 0 1 0-345.458 0Z" fill="#E2C364" p-id="4806"></path><path d="M701.64 553.046c-106.271 0-192.729-86.458-192.729-192.729s86.458-192.73 192.729-192.73 192.729 86.458 192.729 192.73-86.458 192.729-192.729 192.729z m0-345.459c-84.215 0-152.729 68.515-152.729 152.73s68.514 152.729 152.729 152.729c84.215 0 152.729-68.515 152.729-152.729s-68.515-152.73-152.729-152.73z" fill="#1B4551" p-id="4807"></path><path d="M614.518 461.829c0 8.841 0.753 17.506 2.179 25.941 23.855 15.064 52.113 23.79 82.412 23.79 85.366 0 154.568-69.203 154.568-154.568 0-8.841-0.753-17.506-2.179-25.941-23.855-15.064-52.113-23.79-82.412-23.79-85.365 0-154.568 69.202-154.568 154.568z" fill="#FBB738" p-id="4808"></path><path d="M472.572 249.234a9.977 9.977 0 0 1-7.804-3.739l-41.036-51.11c-3.458-4.307-2.77-10.601 1.537-14.059 4.308-3.459 10.601-2.771 14.059 1.537l41.036 51.11c3.458 4.307 2.77 10.601-1.537 14.059a9.958 9.958 0 0 1-6.255 2.202zM393.904 301.261c-4.969 0-9.276-3.699-9.91-8.758-0.687-5.48 3.199-10.479 8.679-11.166l65.037-8.147c5.481-0.686 10.479 3.199 11.166 8.68s-3.199 10.479-8.679 11.166l-65.037 8.147c-0.422 0.052-0.842 0.078-1.256 0.078zM512.502 230.869c-5.333 0-9.762-4.21-9.984-9.587l-2.706-65.489c-0.228-5.519 4.061-10.177 9.579-10.404 5.496-0.23 10.176 4.061 10.404 9.578l2.706 65.489c0.228 5.519-4.061 10.177-9.579 10.404-0.14 0.006-0.28 0.009-0.42 0.009zM807.536 349.565c0 59.1-48.081 107.181-107.181 107.181s-107.181-48.081-107.181-107.181h-20c0 70.128 57.053 127.181 127.181 127.181s127.181-57.053 127.181-127.181h-20zM623.737 319.996a22.879 22.879 0 0 1-0.028-1.114c0-12.818 10.429-23.246 23.247-23.246s23.246 10.428 23.246 23.246c0 0.374-0.011 0.745-0.028 1.114h20c0.009-0.371 0.028-0.741 0.028-1.114 0-23.846-19.4-43.246-43.246-43.246-23.847 0-43.247 19.4-43.247 43.246 0 0.374 0.019 0.743 0.028 1.114h20zM728.161 319.996a22.879 22.879 0 0 1-0.028-1.114c0-12.818 10.429-23.246 23.247-23.246s23.246 10.428 23.246 23.246c0 0.374-0.011 0.745-0.028 1.114h20c0.009-0.371 0.028-0.741 0.028-1.114 0-23.846-19.4-43.246-43.246-43.246-23.847 0-43.247 19.4-43.247 43.246 0 0.374 0.019 0.743 0.028 1.114h20z" fill="#1B4551" p-id="4809"></path></svg>
