<svg t="1633705952073" class="icon" viewBox="0 0 1024 1024" version="1.1" xmlns="http://www.w3.org/2000/svg" p-id="802" width="512" height="512"><path d="M620.270933 492.509867l253.064534 73.1136-464.896 243.8144-229.546667-219.409067 111.8208-42.666667-47.104-48.776533L102.4 541.252267v67.037866L420.181333 955.733333 955.733333 608.290133V529.066667L649.693867 443.733333z" fill="#357EFF" p-id="803"></path><path d="M807.253333 151.1424l-38.365866-37.205333a41.710933 41.710933 0 0 0-57.582934 0L663.278933 160.426667l95.982934 93.013333 47.991466-46.455467a38.6048 38.6048 0 0 0 0-55.842133z m-422.912 279.415467l95.982934 92.9792 261.0176-250.7776-96.017067-93.013334-261.0176 250.811734zM307.2 599.722667l153.6-58.845867-95.163733-92.228267L307.2 599.722667zM673.757867 621.3632c10.581333 14.882133-7.68 17.2032-13.858134 12.526933-29.934933-25.224533-64.443733-51.268267-104.277333-40.925866-59.118933 15.36-80.349867 98.7136-160.836267 88.917333-32.529067-3.9936-60.416-23.995733-84.309333-46.762667-8.123733-7.714133-0.546133-26.043733 16.827733-9.864533 26.282667 24.132267 59.392 45.909333 96.4608 36.727467 61.201067-15.086933 84.650667-101.649067 165.137067-88.4736 31.744 5.188267 58.811733 25.668267 83.5584 46.523733 0 0 0.6144 0.580267 1.297067 1.365333z" fill="#357EFF" p-id="804"></path></svg>
