<?xml version="1.0" standalone="no"?><!DOCTYPE svg PUBLIC "-//W3C//DTD SVG 1.1//EN" "http://www.w3.org/Graphics/SVG/1.1/DTD/svg11.dtd"><svg t="1557719470348" class="icon" style="" viewBox="0 0 1024 1024" version="1.1" xmlns="http://www.w3.org/2000/svg" p-id="14727" xmlns:xlink="http://www.w3.org/1999/xlink" width="32" height="32"><defs><style type="text/css"></style></defs><path d="M960 448v384c0 141.312-114.624 192-256 192H320c-141.376 0-256-50.624-256-192V448c-1.792 1.472-64-64-64-64L482.624 0.768h58.752L1024 384zM512 126.848L192 384v448c0 70.4 121.6 64 192 64h256c70.4 0 192 6.4 192-64V384zM640 704h128v128h-128v-128z m-192 0h128v128H448v-128z m0-192h128v128H448V512z m-192 192h128v128H256v-128z m0-192h128v128H256V512z" p-id="14728"></path></svg>