<?xml version="1.0" standalone="no"?><!DOCTYPE svg PUBLIC "-//W3C//DTD SVG 1.1//EN" "http://www.w3.org/Graphics/SVG/1.1/DTD/svg11.dtd"><svg t="1557718512739" class="icon" style="" viewBox="0 0 1024 1024" version="1.1" xmlns="http://www.w3.org/2000/svg" p-id="14237" xmlns:xlink="http://www.w3.org/1999/xlink" width="32" height="32"><defs><style type="text/css"></style></defs><path d="M378.8 134.5H245.5c-61.1 0-111 50-111 111v133.2c0 61.1 50 111 111 111h133.2c61.1 0 111-50 111-111V245.5c0.1-61-49.9-111-110.9-111zM401 378.8c0 12-10.2 22.2-22.2 22.2H245.5c-12 0-22.2-10.2-22.2-22.2V245.5c0-12 10.2-22.2 22.2-22.2h133.2c12 0 22.2 10.2 22.2 22.2v133.3z m377.5-244.3H645.2c-61.1 0-111 50-111 111v133.2c0 61.1 50 111 111 111h133.2c61.1 0 111-50 111-111V245.5c0.1-61-49.9-111-110.9-111z m22.2 244.3c0 12-10.2 22.2-22.2 22.2H645.2c-12 0-22.2-10.2-22.2-22.2V245.5c0-12 10.2-22.2 22.2-22.2h133.2c12 0 22.2 10.2 22.2 22.2v133.3zM378.8 534.2H245.5c-61.1 0-111 50-111 111v133.2c0 61.1 50 111 111 111h133.2c61.1 0 111-50 111-111V645.2c0.1-61-49.9-111-110.9-111zM401 778.5c0 12-10.2 22.2-22.2 22.2H245.5c-12 0-22.2-10.2-22.2-22.2V645.2c0-12 10.2-22.2 22.2-22.2h133.2c12 0 22.2 10.2 22.2 22.2v133.3z m377.5-244.3H645.2c-61.1 0-111 50-111 111v133.2c0 61.1 50 111 111 111h133.2c61.1 0 111-50 111-111V645.2c0.1-61-49.9-111-110.9-111z m22.2 244.3c0 12-10.2 22.2-22.2 22.2H645.2c-12 0-22.2-10.2-22.2-22.2V645.2c0-12 10.2-22.2 22.2-22.2h133.2c12 0 22.2 10.2 22.2 22.2v133.3z" p-id="14238"></path></svg>